<?xml version="1.0" standalone="no"?>
<!DOCTYPE svg PUBLIC "-//W3C//DTD SVG 20010904//EN"
 "http://www.w3.org/TR/2001/REC-SVG-20010904/DTD/svg10.dtd">
<svg version="1.0" xmlns="http://www.w3.org/2000/svg"
 width="581.000000pt" height="581.000000pt" viewBox="0 0 581.000000 581.000000"
 preserveAspectRatio="xMidYMid meet">
<metadata>
Created by potrace 1.11, written by Peter Selinger 2001-2013
</metadata>
<g transform="translate(0.000000,581.000000) scale(0.100000,-0.100000)"
fill="#000000" stroke="none">
<path d="M0 2905 l0 -2905 2905 0 2905 0 0 2905 0 2905 -2905 0 -2905 0 0
-2905z m2787 1462 c-3 -9 19 -12 92 -13 53 0 77 1 54 3 -24 2 -43 8 -43 13 0
10 128 2 180 -11 49 -12 60 -11 60 6 0 24 65 19 95 -7 32 -27 125 -57 159 -51
16 3 26 1 26 -6 0 -6 9 -11 20 -11 11 0 28 -8 38 -17 9 -10 31 -20 47 -22 17
-1 32 -6 35 -11 9 -13 54 -34 68 -32 6 2 12 -1 12 -7 0 -5 14 -12 30 -16 17
-4 30 -10 30 -15 0 -9 39 -25 53 -22 4 1 7 -3 7 -9 0 -5 5 -7 10 -4 6 3 10 1
10 -4 0 -6 7 -11 15 -11 9 0 18 -7 21 -15 4 -8 13 -15 21 -15 8 0 26 -14 40
-31 17 -20 32 -29 45 -26 11 3 18 0 18 -9 0 -13 13 -19 33 -15 5 1 6 -3 3 -8
-4 -5 -2 -12 4 -16 5 -3 10 -14 10 -24 0 -10 13 -22 35 -30 23 -8 37 -21 41
-36 4 -16 11 -22 22 -18 12 5 14 2 8 -12 -4 -11 -4 -16 0 -12 11 11 43 -23 37
-39 -4 -10 3 -14 22 -14 19 0 26 -4 22 -14 -6 -14 37 -59 47 -49 3 4 6 -5 6
-18 0 -25 20 -60 55 -94 11 -11 22 -29 23 -40 2 -11 8 -22 12 -25 5 -3 14 -18
19 -33 6 -16 15 -25 21 -22 6 4 10 -5 10 -19 0 -15 6 -26 13 -26 8 0 15 -12
15 -27 2 -42 7 -60 18 -74 17 -22 31 -57 33 -85 0 -9 6 -12 13 -8 6 4 9 3 5
-2 -3 -5 8 -63 25 -129 27 -108 30 -137 31 -290 2 -173 -7 -306 -23 -336 -5
-9 -12 -31 -15 -50 -8 -52 -35 -138 -61 -197 -13 -29 -24 -58 -24 -65 0 -7
-11 -28 -23 -47 -13 -19 -29 -49 -34 -66 -6 -17 -23 -51 -39 -75 -15 -24 -26
-44 -23 -44 2 0 -6 -11 -18 -25 -13 -13 -23 -28 -23 -32 0 -8 -38 -56 -115
-146 -49 -58 -119 -124 -167 -160 -29 -21 -59 -46 -67 -55 -7 -10 -20 -17 -29
-17 -8 0 -20 -6 -26 -14 -6 -7 -45 -32 -87 -54 -42 -22 -85 -45 -95 -50 -10
-6 -57 -25 -104 -43 -47 -17 -94 -35 -105 -40 -11 -5 -29 -11 -40 -14 -11 -3
-47 -11 -80 -20 -33 -8 -78 -17 -100 -20 -22 -3 -58 -8 -80 -11 -188 -26 -466
-8 -635 41 -182 53 -229 70 -349 129 -135 65 -232 128 -326 211 -13 12 -44 39
-69 60 -25 21 -46 45 -46 52 0 7 -4 13 -10 13 -14 0 -70 60 -70 75 0 7 -6 15
-13 18 -32 12 -217 335 -246 430 -6 18 -20 59 -31 91 -12 33 -23 71 -25 85 -2
14 -10 64 -17 111 -17 108 -14 344 5 433 10 48 11 67 3 67 -8 0 -8 2 0 8 6 4
17 39 24 77 12 69 29 117 30 86 0 -8 3 -12 6 -9 3 4 0 16 -6 28 -10 18 -8 24
6 34 9 7 23 36 30 64 15 59 50 137 76 171 10 13 18 32 18 42 0 11 5 19 10 19
6 0 10 7 10 16 0 8 4 13 10 9 11 -7 42 49 33 59 -4 3 -1 6 5 6 7 0 12 7 12 15
0 8 9 15 20 15 12 0 20 7 20 16 0 18 50 70 63 66 5 -1 7 3 5 10 -3 7 11 27 30
45 19 17 32 35 29 40 -3 5 3 10 14 10 35 3 79 42 79 71 0 19 3 23 9 14 7 -11
9 -11 14 2 4 9 12 16 18 16 7 0 20 7 30 16 9 8 26 16 37 17 13 1 23 10 27 24
3 13 9 22 13 22 20 -3 32 3 32 16 0 8 7 15 16 15 9 0 22 7 28 15 6 8 21 17 33
20 13 2 33 11 45 19 25 18 42 21 33 6 -3 -5 -2 -10 4 -10 5 0 12 8 16 18 5 19
44 42 70 42 8 0 15 5 15 11 0 5 4 8 9 5 5 -4 30 3 56 14 26 11 52 17 57 13 7
-3 8 -1 4 5 -4 7 -1 12 6 12 11 0 10 2 0 9 -11 7 -11 9 2 14 9 4 16 2 16 -4 0
-6 9 -7 23 -3 12 4 36 8 52 10 17 1 53 8 80 14 28 6 59 11 70 12 33 1 85 19
85 29 0 5 14 9 31 9 21 0 30 -4 26 -13z m-217 -17 c0 -5 -4 -10 -10 -10 -5 0
-10 5 -10 10 0 6 5 10 10 10 6 0 10 -4 10 -10z"/>
<path d="M3170 4350 c20 -13 40 -13 40 0 0 6 -12 10 -27 10 -22 0 -25 -2 -13
-10z"/>
</g>
</svg>
